name rise49.25peak52.1432fall72.8391.mot
datacolumns 19
datarows 29
range 20.82158800000000 20.86825300000000
endheader
time	ground_force1_vx	ground_force1_vy	ground_force1_vz	ground_force1_px	ground_force1_py	ground_force1_pz	ground_force2_vx	ground_force2_vy	ground_force2_vz	ground_force2_px	ground_force2_py	ground_force2_pz	ground_torque1_x	ground_torque1_y	ground_torque1_z	ground_torque2_x	ground_torque2_y	ground_torque2_z	
20.82158800000000	-33.14137800000000	787.05264799999998	46.25965800000000	0.13245200000000	0.00000000000000	0.09348000000000	-2.64693400000000	10.84905700000000	1.17426600000000	0.00000000000000	0.00000000000000	0.00000000000000	0.00000000000000	19.38707800000000	0.00000000000000	0.00000000000000	0.20929400000000	0.00000000000000	
20.82325300000000	-33.79982400000000	786.39187500000003	46.23794700000000	0.13162200000000	0.00000000000000	0.09343100000000	-3.55688800000000	15.47730300000000	1.60216700000000	0.00000000000000	0.00000000000000	0.00000000000000	0.00000000000000	19.36481100000000	0.00000000000000	0.00000000000000	0.29436700000000	0.00000000000000	
20.82491600000000	-34.48289100000000	785.64615500000002	46.20193600000000	0.13079700000000	0.00000000000000	0.09338000000000	-4.52306600000000	20.67441900000000	2.06401600000000	0.00000000000000	0.00000000000000	0.00000000000000	0.00000000000000	19.34360800000000	0.00000000000000	0.00000000000000	0.38867500000000	0.00000000000000	
20.82658500000000	-35.19085300000000	784.81278499999996	46.15110800000000	0.12997500000000	0.00000000000000	0.09332700000000	-5.51276100000000	26.34178100000000	2.54618600000000	0.32616800000000	0.00000000000000	-0.08142000000000	0.00000000000000	19.32353300000000	0.00000000000000	0.00000000000000	0.87170000000000	0.00000000000000	
20.82826000000000	-35.92390500000000	783.88902700000006	46.08496300000000	0.12915800000000	0.00000000000000	0.09327100000000	-6.49104900000000	32.36394400000000	3.03383400000000	0.33390700000000	0.00000000000000	-0.08122400000000	0.00000000000000	19.30464000000000	0.00000000000000	0.00000000000000	1.08186500000000	0.00000000000000	
20.82991700000000	-36.68215900000000	782.87211300000001	46.00301400000000	0.12834400000000	0.00000000000000	0.09321300000000	-7.42340900000000	38.61845000000000	3.51204200000000	0.34080300000000	0.00000000000000	-0.08106300000000	0.00000000000000	19.28697200000000	0.00000000000000	0.00000000000000	1.29928700000000	0.00000000000000	
20.83158200000000	-37.46564300000000	781.75923799999998	45.90479400000000	0.12753300000000	0.00000000000000	0.09315300000000	-8.27821700000000	44.98586000000000	3.96691100000000	0.34698100000000	0.00000000000000	-0.08093200000000	0.00000000000000	19.27056100000000	0.00000000000000	0.00000000000000	1.51822300000000	0.00000000000000	
20.83325100000000	-38.27429300000000	780.54756799999996	45.78985600000000	0.12672600000000	0.00000000000000	0.09309000000000	-9.02882000000000	51.35869200000000	4.38649100000000	0.35254100000000	0.00000000000000	-0.08082700000000	0.00000000000000	19.25542600000000	0.00000000000000	0.00000000000000	1.73333100000000	0.00000000000000	
20.83491700000000	-39.10795400000000	779.23423300000002	45.65777400000000	0.12592200000000	0.00000000000000	0.09302400000000	-9.65495800000000	57.64830600000000	4.76144400000000	0.35756700000000	0.00000000000000	-0.08074500000000	0.00000000000000	19.24157300000000	0.00000000000000	0.00000000000000	1.94001600000000	0.00000000000000	
20.83658600000000	-39.96637400000000	777.81633499999998	45.50814700000000	0.12512000000000	0.00000000000000	0.09295600000000	-10.14348600000000	63.78926900000000	5.08539500000000	0.36212500000000	0.00000000000000	-0.08068400000000	0.00000000000000	19.22899600000000	0.00000000000000	0.00000000000000	2.13466100000000	0.00000000000000	
20.83824900000000	-40.84920200000000	776.29094399999997	45.34059900000000	0.12432200000000	0.00000000000000	0.09288600000000	-10.48839400000000	69.74113100000000	5.35498800000000	0.36627100000000	0.00000000000000	-0.08064200000000	0.00000000000000	19.21767500000000	0.00000000000000	0.00000000000000	2.31473900000000	0.00000000000000	
20.83992000000000	-41.75598500000000	774.65510300000005	45.15478100000000	0.12352500000000	0.00000000000000	0.09281200000000	-10.69024800000000	75.48786100000000	5.56968800000000	0.37005400000000	0.00000000000000	-0.08061700000000	0.00000000000000	19.20757900000000	0.00000000000000	0.00000000000000	2.47882300000000	0.00000000000000	
20.84158900000000	-42.68616500000000	772.90583000000004	44.95037400000000	0.12273100000000	0.00000000000000	0.09273600000000	-10.75519100000000	81.03536800000001	5.73137800000000	0.37351100000000	0.00000000000000	-0.08060800000000	0.00000000000000	19.19865900000000	0.00000000000000	0.00000000000000	2.62649000000000	0.00000000000000	
20.84325600000000	-43.63907900000000	771.04012000000000	44.72709000000000	0.12193900000000	0.00000000000000	0.09265700000000	-10.69365200000000	86.40765100000000	5.84382800000000	0.37667800000000	0.00000000000000	-0.08061200000000	0.00000000000000	19.19085700000000	0.00000000000000	0.00000000000000	2.75816800000000	0.00000000000000	
20.84492200000000	-44.61395600000000	769.05494899999997	44.48467300000000	0.12114800000000	0.00000000000000	0.09257600000000	-10.51893300000000	91.64212800000000	5.91209900000000	0.37958300000000	0.00000000000000	-0.08062900000000	0.00000000000000	19.18409800000000	0.00000000000000	0.00000000000000	2.87493100000000	0.00000000000000	
20.84659000000000	-45.60991500000000	766.94727799999998	44.22290400000000	0.12035900000000	0.00000000000000	0.09249200000000	-10.24580700000000	96.78468900000000	5.94194900000000	0.38225200000000	0.00000000000000	-0.08065800000000	0.00000000000000	19.17829400000000	0.00000000000000	0.00000000000000	2.97827500000000	0.00000000000000	
20.84824900000000	-46.62596600000000	764.71405700000003	43.94159600000000	0.11957100000000	0.00000000000000	0.09240500000000	-9.88923500000000	101.88489700000000	5.93927100000000	0.38470600000000	0.00000000000000	-0.08069700000000	0.00000000000000	19.17334200000000	0.00000000000000	0.00000000000000	3.06990600000000	0.00000000000000	
20.84991700000000	-47.66100500000000	762.35222799999997	43.64060400000000	0.11878400000000	0.00000000000000	0.09231500000000	-9.46329500000000	106.99173200000000	5.90963300000000	0.38696300000000	0.00000000000000	-0.08074700000000	0.00000000000000	19.16912600000000	0.00000000000000	0.00000000000000	3.15153800000000	0.00000000000000	
20.85158200000000	-48.71381900000000	759.85873500000002	43.31981800000000	0.11799800000000	0.00000000000000	0.09222200000000	-8.98036000000000	112.15008000000000	5.85790300000000	0.38904100000000	0.00000000000000	-0.08080600000000	0.00000000000000	19.16551600000000	0.00000000000000	0.00000000000000	3.22473600000000	0.00000000000000	
20.85324800000000	-49.78308100000000	757.23052399999995	42.97917200000000	0.11721200000000	0.00000000000000	0.09212700000000	-8.45054900000000	117.39813500000000	5.78800800000000	0.39095400000000	0.00000000000000	-0.08087400000000	0.00000000000000	19.16236600000000	0.00000000000000	0.00000000000000	3.29078800000000	0.00000000000000	
20.85491900000000	-50.86735400000000	754.46455400000002	42.61863800000000	0.11642600000000	0.00000000000000	0.09202900000000	-7.88144500000000	122.76574400000000	5.70279200000000	0.39271500000000	0.00000000000000	-0.08095000000000	0.00000000000000	19.15951900000000	0.00000000000000	0.00000000000000	3.35063300000000	0.00000000000000	
20.85658700000000	-51.96509200000000	751.55779900000005	42.23823300000000	0.11564100000000	0.00000000000000	0.09192800000000	-7.27806100000000	128.27364800000001	5.60398900000000	0.39433500000000	0.00000000000000	-0.08103400000000	0.00000000000000	19.15680100000000	0.00000000000000	0.00000000000000	3.40482200000000	0.00000000000000	
20.85825200000000	-53.07463600000000	748.50725899999998	41.83801600000000	0.11485500000000	0.00000000000000	0.09182500000000	-6.64299600000000	133.93351100000001	5.49227700000000	0.39582300000000	0.00000000000000	-0.08112500000000	0.00000000000000	19.15402800000000	0.00000000000000	0.00000000000000	3.45352000000000	0.00000000000000	
20.85992100000000	-54.19422400000000	745.30996500000003	41.41809200000000	0.11406900000000	0.00000000000000	0.09171900000000	-5.97674900000000	139.74861000000001	5.36740900000000	0.39718900000000	0.00000000000000	-0.08122300000000	0.00000000000000	19.15100000000000	0.00000000000000	0.00000000000000	3.49653700000000	0.00000000000000	
20.86158600000000	-55.32198400000000	741.96298800000000	40.97861000000000	0.11328200000000	0.00000000000000	0.09161000000000	-5.27813700000000	145.71498600000001	5.22837700000000	0.39844100000000	0.00000000000000	-0.08132600000000	0.00000000000000	19.14750500000000	0.00000000000000	0.00000000000000	3.53338500000000	0.00000000000000	
20.86325200000000	-56.45594500000000	738.46344799999997	40.51976400000000	0.11249400000000	0.00000000000000	0.09149800000000	-4.54475500000000	151.82290699999999	5.07361700000000	0.39958600000000	0.00000000000000	-0.08143600000000	0.00000000000000	19.14331800000000	0.00000000000000	0.00000000000000	3.56334200000000	0.00000000000000	
20.86491800000000	-57.59403400000000	734.80852100000004	40.04179500000000	0.11170500000000	0.00000000000000	0.09138400000000	-3.77345300000000	158.05846099999999	4.90120500000000	0.40062900000000	0.00000000000000	-0.08155200000000	0.00000000000000	19.13820400000000	0.00000000000000	0.00000000000000	3.58553200000000	0.00000000000000	
20.86658900000000	-58.73408300000000	730.99545200000000	39.54499000000000	0.11091500000000	0.00000000000000	0.09126700000000	-2.96078000000000	164.40515600000001	4.70905500000000	0.40157700000000	0.00000000000000	-0.08167200000000	0.00000000000000	19.13191400000000	0.00000000000000	0.00000000000000	3.59899500000000	0.00000000000000	
20.86825300000000	-59.87383200000000	727.02156300000001	39.02968000000000	0.11012300000000	0.00000000000000	0.09114800000000	-2.10337100000000	170.84538300000000	4.49508800000000	0.40243500000000	0.00000000000000	-0.08179800000000	0.00000000000000	19.12419100000000	0.00000000000000	0.00000000000000	3.60275500000000	0.00000000000000	
